<svg width="18" height="18" viewBox="0 0 18 18"  xmlns="http://www.w3.org/2000/svg">
<path d="M4.17824 0C1.86529 0 0 1.87364 0 4.1854C0 6.49715 1.87461 8.36147 4.17824 8.36147H8.35648V4.1854C8.35648 1.87364 6.48187 0 4.17824 0ZM18 4.1854C18 1.87364 16.1254 0.00932158 13.8218 0.00932158C11.5181 0.00932158 9.64352 1.88296 9.64352 4.1854V8.36147H13.8218C16.1254 8.36147 18 6.48783 18 4.1854ZM0 13.8239C0 16.1357 1.87461 18 4.17824 18C6.48187 18 8.35648 16.1264 8.35648 13.8239V9.64785H4.17824C1.86529 9.64785 0 11.5122 0 13.8239ZM13.8218 9.64785H9.64352V13.8239C9.64352 16.1357 11.5181 18 13.8218 18C16.1254 18 18 16.1264 18 13.8239C18 11.5215 16.1254 9.64785 13.8218 9.64785Z" />
</svg>
