<svg width="16" height="18" viewBox="0 0 16 18"  xmlns="http://www.w3.org/2000/svg">
<path fill-rule="evenodd" clip-rule="evenodd" d="M5.5324 0H11.0709L15.2247 4.15385V12.4615C15.2247 13.2231 14.6016 13.8462 13.8401 13.8462H12.2824V7.2824L7.76923 2.76923H4.15385L4.15471 1.38462C4.15471 0.623077 4.77087 0 5.5324 0ZM10.2692 2.76923L12.3462 4.84615H14.1863L10.3786 1.03846V2.76923H10.2692ZM1.38462 4.15385C0.623077 4.15385 0.00692324 4.77692 0.00692324 5.53846L0 16.6154C0 17.3769 0.616154 18 1.37769 18H9.69231C10.4538 18 11.0769 17.3769 11.0769 16.6154V8.30769L6.92308 4.15385H1.38462ZM8.30769 15.2308H2.76923V13.8462H8.30769V15.2308ZM8.30769 12.4615H2.76923V11.0769H8.30769V12.4615ZM6.23077 9V5.19231L10.0385 9H6.23077Z" />
</svg>
