<svg width="18" height="18" viewBox="0 0 18 18"  xmlns="http://www.w3.org/2000/svg">
<path d="M10.2279 0.0839967C8.07482 -0.212187 5.88725 0.280662 4.06916 1.47154C2.25108 2.66241 0.925264 4.47089 0.336536 6.56302C-0.252191 8.65515 -0.0640718 10.8896 0.866159 12.8539C1.79639 14.8182 3.40591 16.3795 5.39751 17.2496C5.34365 16.5584 5.39308 15.863 5.54418 15.1863C5.71066 14.4313 6.7104 10.2704 6.7104 10.2704C6.51132 9.82413 6.41183 9.33988 6.41884 8.85129C6.41884 7.51501 7.19002 6.51797 8.14927 6.51797C8.32159 6.51546 8.49244 6.55009 8.65019 6.6195C8.80794 6.68891 8.9489 6.79148 9.06347 6.92022C9.17805 7.04897 9.26356 7.20088 9.31418 7.36562C9.36481 7.53037 9.37937 7.70408 9.35687 7.87495C9.35687 8.68482 8.83676 9.91042 8.565 11.0604C8.51129 11.2713 8.50788 11.4919 8.55505 11.7044C8.60222 11.9169 8.69864 12.1153 8.83654 12.2836C8.97444 12.452 9.14997 12.5856 9.34898 12.6737C9.54799 12.7618 9.76492 12.802 9.98227 12.7909C11.6902 12.7909 12.8348 10.6033 12.8348 8.02073C12.8348 6.04104 11.5237 4.55808 9.10671 4.55808C8.52844 4.53561 7.95164 4.6309 7.41132 4.83816C6.87101 5.04543 6.37845 5.36034 5.96356 5.76379C5.54867 6.16723 5.22011 6.65079 4.99781 7.1851C4.77552 7.71941 4.66413 8.29332 4.67042 8.87199C4.64466 9.51388 4.85175 10.1435 5.25353 10.6447C5.32861 10.7008 5.38343 10.7797 5.40972 10.8696C5.43602 10.9595 5.43236 11.0556 5.39931 11.1432C5.35791 11.3088 5.25353 11.7038 5.21214 11.8487C5.20353 11.8978 5.1835 11.9443 5.15367 11.9842C5.12383 12.0242 5.08503 12.0566 5.04038 12.0789C4.99573 12.1011 4.94649 12.1125 4.89661 12.1123C4.84673 12.112 4.79761 12.1 4.75321 12.0773C3.50781 11.5788 2.9211 10.2083 2.9211 8.64343C2.9211 6.08154 5.06636 3.01483 9.35867 3.01483C12.7745 3.01483 15.0458 5.51373 15.0458 8.1863C15.0458 11.7038 13.0868 14.3485 10.1919 14.3485C9.75928 14.3623 9.33012 14.2669 8.94414 14.0709C8.55816 13.8749 8.22783 13.5848 7.98369 13.2273C7.98369 13.2273 7.46358 15.3114 7.36099 15.7055C7.15159 16.3864 6.84259 17.0326 6.44404 17.6231C7.27461 17.875 8.13757 18.001 9.00503 17.9974C10.1871 17.9984 11.3577 17.7662 12.4498 17.3141C13.542 16.862 14.5342 16.1989 15.3698 15.3628C16.2053 14.5266 16.8677 13.5339 17.319 12.4414C17.7704 11.349 18.0018 10.1782 18 8.99617C17.9989 6.82302 17.2115 4.72365 15.7833 3.08572C14.3551 1.44779 12.3825 0.381907 10.2297 0.0848965L10.2279 0.0839967Z" />
</svg>
