<svg width="19" height="18" viewBox="0 0 19 18"  xmlns="http://www.w3.org/2000/svg">
<path fill-rule="evenodd" clip-rule="evenodd" d="M10.946 1.02665C11.4471 0.785233 11.8876 0.434389 12.235 0C13.4748 0.411909 14.614 1.08017 15.5786 1.96132C15.3815 2.48739 15.3023 3.0503 15.3466 3.61032C15.391 4.17034 15.5577 4.71381 15.835 5.20234C16.1093 5.68738 16.4887 6.10492 16.9453 6.42436C17.4019 6.74381 17.9242 6.95707 18.4739 7.04853C18.748 8.33519 18.748 9.66515 18.4739 10.9518C17.9242 11.0433 17.4019 11.2565 16.9453 11.576C16.4887 11.8954 16.1093 12.313 15.835 12.798C15.5577 13.2865 15.391 13.83 15.3466 14.39C15.3023 14.95 15.3815 15.5129 15.5786 16.039C14.614 16.92 13.4748 17.5882 12.235 18C11.8876 17.5657 11.447 17.2149 10.9459 16.9735C10.4448 16.7322 9.89593 16.6064 9.33973 16.6055C8.78353 16.6064 8.23463 16.7322 7.73352 16.9735C7.23242 17.2149 6.79189 17.5657 6.44444 18C5.20466 17.5882 4.06544 16.92 3.10086 16.039C3.29793 15.5129 3.37711 14.95 3.33281 14.39C3.2885 13.83 3.12179 13.2865 2.84444 12.798C2.57011 12.313 2.19075 11.8954 1.73415 11.576C1.27754 11.2565 0.75527 11.0433 0.205575 10.9518C-0.0685252 9.66515 -0.0685252 8.33519 0.205575 7.04853C0.75527 6.95707 1.27754 6.74381 1.73415 6.42436C2.19075 6.10492 2.57011 5.68738 2.84444 5.20234C3.12179 4.71381 3.2885 4.17034 3.33281 3.61032C3.37711 3.0503 3.29793 2.48739 3.10086 1.96132C4.06541 1.08017 5.20464 0.411909 6.44444 0C6.79186 0.434389 7.23237 0.785233 7.73347 1.02665C8.23458 1.26806 8.7835 1.39388 9.33973 1.39483C9.89595 1.39388 10.4449 1.26806 10.946 1.02665ZM10.4031 6.67301C10.1198 6.55567 9.81617 6.49528 9.50954 6.49528C8.89029 6.49528 8.2964 6.74128 7.85852 7.17916C7.42064 7.61704 7.17464 8.21093 7.17464 8.83018C7.17464 9.44944 7.42064 10.0433 7.85852 10.4812C8.2964 10.9191 8.89029 11.1651 9.50954 11.1651C9.81617 11.1651 10.1198 11.1047 10.4031 10.9874C10.6864 10.87 10.9438 10.698 11.1606 10.4812C11.3774 10.2644 11.5494 10.007 11.6667 9.72371C11.7841 9.44043 11.8444 9.13681 11.8444 8.83018C11.8444 8.52356 11.7841 8.21994 11.6667 7.93666C11.5494 7.65337 11.3774 7.39597 11.1606 7.17916C10.9438 6.96234 10.6864 6.79035 10.4031 6.67301ZM5.7737 8.83018C5.7737 6.76698 7.44634 5.09434 9.50954 5.09434C11.5728 5.09434 13.2454 6.76698 13.2454 8.83018C13.2454 10.8937 11.5728 12.566 9.50954 12.566C7.44634 12.566 5.7737 10.8937 5.7737 8.83018Z" />
</svg>
