<svg width="18" height="18" viewBox="0 0 18 18"  xmlns="http://www.w3.org/2000/svg">
<path  fill-rule="evenodd" clip-rule="evenodd" d="M9 18C13.9706 18 18 13.9706 18 9C18 4.02944 13.9706 0 9 0C4.02944 0 0 4.02944 0 9C0 13.9706 4.02944 18 9 18ZM8.80228 10.9405C8.80228 11.8679 8.12589 12.4744 7.29152 12.4744C6.45714 12.4744 5.78075 11.7876 5.78075 10.9405C5.78075 10.1831 6.47554 9.49028 7.31684 9.52177C7.48199 9.52177 7.67588 9.5617 7.75107 9.5887V7.82675C6.25652 7.51987 4 8.77547 4 10.9405C4 12.4744 5.16256 14.2138 7.29152 14.2138C9.42047 14.2138 10.609 12.4744 10.609 10.9405V7.45591C10.9519 7.73197 11.9371 8.22939 13.0958 8.22939V6.49955C11.741 6.52727 10.5125 5.31525 10.6141 4.06055H8.80228V10.9405Z" />
</svg>
