<svg width="18" height="15" viewBox="0 0 18 15"  xmlns="http://www.w3.org/2000/svg">
<path  d="M17.9991 1.73735C17.325 2.03555 16.6101 2.23139 15.878 2.31839C16.6496 1.85694 17.2271 1.13071 17.5028 0.275025C16.7787 0.705951 15.9849 1.00795 15.1575 1.17132C14.6017 0.576654 13.865 0.182272 13.062 0.0494813C12.2589 -0.0833097 11.4345 0.0529307 10.7169 0.437022C9.99925 0.821113 9.42862 1.43153 9.0937 2.17339C8.75879 2.91524 8.67835 3.74697 8.86489 4.53925C7.39648 4.46565 5.95997 4.08406 4.6486 3.41925C3.33724 2.75444 2.18035 1.82128 1.25304 0.680342C0.924805 1.24412 0.752315 1.88502 0.753238 2.53739C0.753238 3.8178 1.40493 4.94898 2.3957 5.61127C1.80937 5.59281 1.23594 5.43447 0.723214 5.14944V5.19535C0.723391 6.04811 1.01848 6.87457 1.55844 7.53459C2.0984 8.19462 2.85001 8.6476 3.68583 8.81672C3.14154 8.96422 2.57082 8.98597 2.01688 8.8803C2.25253 9.61432 2.71184 10.2563 3.33049 10.7163C3.94914 11.1762 4.69615 11.4312 5.46693 11.4455C4.70088 12.0472 3.82374 12.4919 2.88569 12.7544C1.94763 13.0168 0.967047 13.0918 0 12.975C1.68812 14.0606 3.65324 14.637 5.66032 14.6351C12.4536 14.6351 16.1686 9.00746 16.1686 4.12687C16.1686 3.96792 16.1641 3.80721 16.1571 3.65002C16.8802 3.12741 17.5043 2.48001 18 1.73823L17.9991 1.73735Z" />
</svg>
